<?xml version="1.0" standalone="no"?>
<!DOCTYPE svg PUBLIC "-//W3C//DTD SVG 20010904//EN"
 "http://www.w3.org/TR/2001/REC-SVG-20010904/DTD/svg10.dtd">
<svg version="1.0" xmlns="http://www.w3.org/2000/svg"
 width="2500.000000pt" height="270.000000pt" viewBox="0 0 2500.000000 270.000000"
 preserveAspectRatio="xMidYMid meet">

<g transform="translate(0.000000,270.000000) scale(0.100000,-0.100000)"
fill="#000000" stroke="none">
<path d="M1715 2596 c-69 -30 -108 -112 -86 -179 22 -66 86 -107 167 -107 29
0 44 -4 44 -13 0 -21 -365 -379 -383 -376 -8 2 -111 85 -227 184 -116 99 -225
186 -242 193 -69 29 -67 31 -449 -296 -212 -181 -269 -243 -269 -291 0 -63 87
-151 150 -151 39 0 80 30 296 216 118 101 221 184 229 184 7 0 112 -85 233
-188 121 -104 233 -194 251 -201 71 -30 85 -21 361 255 141 140 261 254 267
254 6 0 12 -26 15 -60 7 -96 63 -155 148 -155 52 0 87 19 124 69 20 26 21 40
21 300 l0 273 -29 37 c-47 63 -65 66 -343 66 -184 -1 -256 -4 -278 -14z"/>
<path d="M16275 1910 c-342 -48 -607 -268 -704 -585 -73 -235 -35 -515 98
-717 56 -85 144 -176 219 -226 28 -19 52 -36 52 -38 0 -2 -344 -4 -765 -4
l-765 0 0 180 0 180 173 0 c315 0 481 45 608 167 98 93 149 236 149 418 0 247
-96 427 -272 510 -154 73 -253 85 -690 85 l-338 0 0 -770 0 -770 -165 0 -165
0 0 110 0 110 -417 2 -418 3 -3 167 -2 168 367 2 368 3 0 155 0 155 -367 3
-368 2 0 165 0 165 410 0 410 0 0 165 0 165 -595 0 -595 0 0 -770 0 -770 -171
2 -172 3 -169 239 -169 240 58 30 c174 92 265 284 250 526 -15 233 -111 377
-296 442 -134 46 -176 50 -613 55 l-418 5 0 -771 0 -771 -462 2 -461 3 -279
390 c-154 215 -283 397 -288 406 -7 13 60 93 315 375 l324 359 -225 3 -226 2
-62 -67 c-34 -38 -173 -188 -309 -336 l-247 -267 0 335 0 335 -185 0 -185 0 0
-770 0 -770 -200 0 -200 0 0 770 0 770 -185 0 -185 0 -2 -521 -3 -521 -189
248 c-104 137 -284 372 -398 522 l-209 272 -170 0 -169 0 -2 -767 -3 -768
-116 -3 -116 -3 -288 668 c-158 367 -308 714 -333 771 l-45 102 -177 0 -177 0
-115 -267 c-64 -148 -214 -494 -333 -770 l-218 -503 -175 0 -175 0 55 58 c86
89 118 172 118 300 -1 188 -107 323 -305 387 -16 5 -12 10 25 31 58 33 127 99
151 146 53 103 47 267 -13 380 -59 111 -138 169 -286 211 -71 19 -106 21 -480
25 l-402 3 0 -770 0 -771 -115 0 -115 0 0 -50 0 -50 1033 0 1033 0 74 175 74
175 346 0 346 0 74 -175 74 -175 473 0 473 0 2 512 3 511 44 -59 c25 -32 200
-263 389 -511 l344 -453 569 0 569 0 0 233 0 233 77 84 c42 47 80 86 83 88 4
2 115 -141 246 -318 l238 -320 823 0 823 0 0 260 0 261 126 -3 127 -3 177
-255 178 -255 3076 -3 3076 -2 0 260 0 260 128 0 128 0 180 -260 179 -259
1642 -1 1643 0 2 511 3 511 389 -511 389 -511 1164 0 1163 0 0 50 0 49 -152 3
-152 3 40 26 c21 14 63 47 92 74 l52 47 0 294 0 294 -185 0 -185 0 0 -229 0
-229 -47 -20 c-75 -31 -159 -46 -268 -46 -121 1 -185 22 -278 92 -118 90 -176
213 -184 387 -9 175 33 293 141 400 183 183 469 192 693 24 l62 -47 95 136 95
137 -22 18 c-104 87 -260 165 -389 193 -109 25 -320 22 -423 -5 -271 -71 -511
-292 -591 -545 -68 -218 -53 -467 41 -660 61 -126 141 -218 281 -323 l29 -22
-352 0 -353 -1 0 770 0 770 -185 0 -185 0 -2 -520 -3 -521 -330 433 c-181 238
-361 472 -398 520 l-68 88 -169 0 -170 0 0 -770 0 -770 -205 0 -205 0 0 770 0
770 -180 0 -180 0 0 -770 0 -770 -365 0 -365 0 0 610 0 610 230 0 230 0 0 160
0 160 -650 0 -650 0 0 -160 0 -160 235 0 235 0 0 -610 0 -610 -337 0 -338 1
-165 235 c-91 129 -166 238 -168 243 -1 5 21 20 51 35 115 56 210 186 238 326
16 80 13 264 -5 333 -59 219 -205 323 -501 357 -49 5 -253 10 -452 10 l-363 0
0 -770 0 -770 -355 0 c-195 0 -355 2 -355 3 0 2 24 20 54 41 113 78 236 232
289 363 74 183 79 434 12 623 -87 245 -328 459 -585 519 -100 24 -260 33 -345
21z m206 -320 c181 -34 339 -192 384 -381 73 -309 -111 -613 -399 -661 -142
-24 -295 28 -401 136 -113 115 -161 247 -152 416 9 154 54 259 156 361 111
110 261 157 412 129z m-12595 -33 c114 -24 149 -70 142 -185 -4 -59 -7 -67
-40 -97 -47 -44 -106 -55 -283 -55 l-145 0 0 175 0 175 133 0 c72 0 160 -6
193 -13z m7733 -13 c95 -27 134 -89 133 -216 0 -122 -40 -189 -132 -224 -35
-14 -89 -18 -247 -22 l-203 -4 0 241 0 240 113 4 c156 5 273 -2 336 -19z
m3181 -4 c111 -32 161 -105 162 -235 0 -98 -24 -176 -67 -220 -52 -52 -112
-66 -312 -72 l-173 -6 0 276 0 276 83 4 c130 5 237 -3 307 -23z m3587 4 c38
-10 61 -25 87 -55 40 -48 51 -97 43 -195 -7 -93 -42 -148 -116 -182 -54 -25
-65 -26 -263 -30 l-208 -4 0 241 0 240 113 4 c157 5 283 -2 344 -19z m-12767
-384 c51 -118 95 -221 97 -227 4 -10 -39 -13 -197 -13 -158 0 -201 3 -197 13
29 69 188 431 193 438 3 6 7 9 9 7 1 -2 44 -100 95 -218z m-1720 -240 c161
-17 220 -65 220 -178 0 -152 -82 -192 -392 -192 l-168 0 0 190 0 190 123 0
c67 0 165 -5 217 -10z"/>
<path d="M285 1397 c-53 -14 -136 -98 -153 -153 -17 -58 -17 -810 0 -868 16
-55 99 -138 154 -154 60 -17 2008 -17 2068 0 55 16 138 99 154 154 17 58 17
810 0 868 -18 60 -100 139 -160 154 -62 16 -2003 15 -2063 -1z m280 -249 c-19
-88 -83 -158 -163 -178 -36 -9 -47 -8 -53 2 -10 15 -12 192 -2 201 3 4 55 7
115 7 l110 0 -7 -32z m1733 -68 c1 -52 -2 -101 -6 -108 -7 -10 -18 -11 -54 -2
-80 20 -144 90 -163 178 l-7 33 114 -3 113 -3 3 -95z m-851 -1 c188 -91 230
-332 83 -476 -67 -65 -121 -88 -210 -88 -89 0 -143 23 -210 88 -62 61 -84 116
-85 208 0 64 4 84 30 134 35 68 103 127 175 150 62 20 156 13 217 -16z m-1017
-440 c60 -27 88 -54 116 -114 41 -86 41 -86 -88 -83 l-113 3 -3 85 c-5 138 3
148 88 109z m1865 -1 c3 -13 5 -61 3 -108 l-3 -85 -112 -3 c-129 -3 -129 -3
-92 78 27 60 54 88 114 116 63 30 83 30 90 2z"/>
</g>
</svg>
